<svg version="1.0" xmlns="http://www.w3.org/2000/svg" width="682.667" height="682.667"><g fill="#fff"><path d="M68.1 33.6c-16.9 4.5-30.1 18-34.6 35.1-2.3 8.6-2.3 302 0 310.6 4.6 17.8 19.3 32 36.7 35.6 3.7.8 36.4 1.1 106.5.9 100.4-.3 101.2-.3 103.9-2.4 5.3-3.9 6.9-7.1 6.9-13.4 0-6.3-1.6-9.5-6.9-13.4-2.7-2.1-3.7-2.1-104.6-2.6-100.9-.5-101.9-.5-104.6-2.6-6.8-5.1-6.9-5.2-7.2-31.2l-.3-23.7 32.1-32 32-32 20.2 20.2c17.2 17.1 20.9 20.2 24.1 20.8 9.1 1.7 7.5 3 55.4-44.8l44.3-44.2 36.2 36.2c39.2 39.1 38.5 38.5 47.5 36.8 4.9-.9 10.9-6.9 11.8-11.8 1.7-9.1 3-7.6-44.3-54.9-38.4-38.3-44.2-43.8-47.5-44.3-9.2-1.7-7.5-3-55.4 44.8L176 265.5l-20.2-20.2c-29.6-29.4-25.5-30-63.6 8L64 281.5l.2-103.7c.3-102.9.3-103.7 2.4-106.4 1.1-1.5 3.3-3.7 4.8-4.8 2.7-2.1 2.8-2.1 152.6-2.1 149.8 0 149.9 0 152.6 2.1 1.5 1.1 3.7 3.3 4.8 4.8 2.1 2.7 2.1 3.7 2.6 104.6.5 100.9.5 101.9 2.6 104.6 3.9 5.3 7.1 6.9 13.4 6.9 6.3 0 9.5-1.6 13.4-6.9 2.1-2.7 2.1-3.5 2.4-103.9.2-70.1-.1-102.8-.9-106.5-3.6-17.4-17.8-32.1-35.6-36.7-8.5-2.2-303-2.1-311.2.1z"/><path d="M164.1 97.6c-25.3 6.8-41 33.1-34.6 57.9 6.7 25.6 32.9 41.5 58 35 25.6-6.7 41.5-32.9 35-57.8-6.7-25.9-33.3-41.9-58.4-35.1zm18.2 31.8c10.3 4.3 12.8 17.7 4.8 25.7-6.5 6.5-15.7 6.5-22.2 0-12.4-12.3 1.3-32.5 17.4-25.7zM393.5 321.4c-3.7 1.7-7 5.2-8.4 8.9-.7 1.7-1.1 12.7-1.1 28.2v25.4l-26.9.3c-25.4.3-27.1.4-29.7 2.4-5.3 3.9-6.9 7.1-6.9 13.4 0 6.3 1.6 9.5 6.9 13.4 2.6 2 4.3 2.1 29.6 2.4l26.9.3.3 26.9c.3 25.3.4 27 2.4 29.6 3.9 5.3 7.1 6.9 13.4 6.9 6.3 0 9.5-1.6 13.4-6.9 2-2.6 2.1-4.3 2.4-29.6l.3-26.9 26.9-.3c25.3-.3 27-.4 29.6-2.4 5.3-3.9 6.9-7.1 6.9-13.4 0-6.3-1.6-9.5-6.9-13.4-2.6-2-4.3-2.1-29.6-2.4l-26.9-.3-.3-26.9c-.3-25.3-.4-27-2.4-29.6-1.1-1.5-3.2-3.7-4.6-4.7-3.4-2.5-11.3-3.2-15.3-1.3z"/></g></svg>