<svg width="36" height="20" fill="none" xmlns="http://www.w3.org/2000/svg"><path fill-rule="evenodd" clip-rule="evenodd" d="M35.55 10c0-.295-.133-.577-.371-.786a1.367 1.367 0 0 0-.898-.325H4.337l7.99-6.99c.118-.103.212-.226.276-.361a.993.993 0 0 0 0-.851 1.116 1.116 0 0 0-.276-.361 1.297 1.297 0 0 0-.412-.241 1.43 1.43 0 0 0-.973 0 1.297 1.297 0 0 0-.412.24L.373 9.214a1.114 1.114 0 0 0-.276.361.992.992 0 0 0 0 .852c.064.135.158.257.276.36l10.157 8.888c.118.104.258.185.412.241a1.431 1.431 0 0 0 .973 0c.154-.056.294-.137.412-.24.118-.104.212-.227.276-.362a.993.993 0 0 0 0-.851 1.116 1.116 0 0 0-.276-.36l-7.99-6.991H34.28c.337 0 .66-.117.898-.325.238-.209.372-.491.372-.786Z" fill="#fff"/></svg>