<?xml version="1.0" encoding="utf-8"?>
<!DOCTYPE svg PUBLIC "-//W3C//DTD SVG 1.1//EN" "http://www.w3.org/Graphics/SVG/1.1/DTD/svg11.dtd">
<svg
  version="1.1"
  xmlns="http://www.w3.org/2000/svg"
  xmlns:xlink="http://www.w3.org/1999/xlink"
  x="0px"
  y="0px"
  viewBox="0 0 1000 1000"
  enable-background="new 0 0 1000 1000"
  xml:space="preserve">

	<g>
		<g transform="translate(0.000000,434.000000) scale(0.100000,-0.100000)">
			<path stroke="#fff" d="M5032.9,3470.5c-111.1-40.2-208.8-113-270.1-201.2c-46-63.2-216.5-643.7-896.6-3015.5c-800.8-2789.4-843-2940.8-833.4-3059.6c11.5-193.5,113-346.7,279.7-429.1c47.9-23,628.4-197.3,1289.4-387c659-187.8,1197.4-344.9,1195.5-346.8c-1.9-3.8-714.6,93.9-1584.4,216.5c-1737.6,243.3-1693.6,233.7-1804.7,385.1c-42.1,59.4-59.4,109.2-67.1,182c-7.7,101.5,797,5921.8,839.1,6075c26.8,90,118.8,195.4,212.7,245.2c99.6,49.8,191.6,46,661-21.1c220.3-32.6,410-53.6,423.4-47.9c13.4,3.8,24.9,30.7,24.9,55.6c0,59.4,30.7,51.7-507.7,128.4c-256.7,36.4-450.2,53.6-498.1,46c-183.9-28.7-362.1-164.8-419.6-321.9c-47.9-126.4-877.4-6077-864-6186.2c26.8-187.7,205-387,388.9-434.9c40.2-9.6,492.4-76.6,1005.8-147.5c515.4-72.8,929.2-134.1,919.6-136c-30.6-9.6-1942.6-139.9-2055.7-139.9c-189.7,0-358.3,118.8-400.4,281.6c-9.6,40.2-97.7,1197.4-193.5,2572.9c-95.8,1375.6-189.7,2726.2-208.8,3002.1c-40.2,559.4-34.5,626.5,57.5,741.4c109.2,130.3,166.7,147.5,628.4,178.2c228,13.4,433,30.6,454.1,34.5c51.7,11.5,69,53.6,40.2,93.9c-21.1,30.7-55.6,30.7-444.5,1.9c-231.8-15.3-446.4-34.5-479-40.2c-86.2-19.2-164.8-61.3-245.2-139.8c-99.6-92-149.4-197.3-160.9-325.7c-3.8-59.4,69-1224.2,164.8-2588.3c274-3881.4,245.2-3532.8,293.1-3634.3c74.7-157.1,229.9-277.8,392.7-302.7c40.2-7.7,511.5,19.2,1047.9,57.5c536.4,38.3,992.4,67.1,1013.5,63.2c69-9.6-2074.8-611.1-2176.4-609.2c-164.8,0-304.6,103.5-365.9,272.1c-15.3,46-396.6,1364.1-844.9,2931.2C503.9,414.8,229.9,1397.6,229.9,1457c0,107.3,51.7,212.7,141.8,293.1c72.8,63.2,166.7,97.7,659,235.6c306.5,86.2,360.2,118.8,300.8,178.2c-17.2,15.3-40.2,24.9-53.6,21.1c-13.4-3.8-208.8-61.3-434.9-124.5c-226.1-65.1-448.3-139.9-494.3-164.8c-157.1-92-270.1-321.9-245.2-498.1c5.8-46,187.8-697.4,402.3-1448.4c216.5-751,586.2-2046.1,825.7-2879.5c237.6-831.5,446.4-1546.1,463.6-1586.3c69-159,293.1-300.8,475.1-300.8c44.1,0,668.6,170.5,1471.3,400.4l1392.8,400.4l820-113c806.6-109.2,823.8-113,1247.2-235.7c488.5-143.7,584.3-153.3,739.5-80.4c116.9,53.6,241.4,185.8,283.5,300.8c57.5,155.2,1661,5783.9,1672.5,5868.2c24.9,182-114.9,434.9-285.4,517.3c-132.2,61.3-4337.4,1256.8-4421.7,1256.8C5144,3495.4,5073.1,3483.9,5032.9,3470.5z M7293.5,2786.6c1105.4-316.1,2065.2-592,2138.1-613.1c212.7-63.2,337.2-208.8,339.1-398.5c0-128.4-1655.3-5893.1-1716.6-5973.5c-92-120.7-254.8-193.5-377.4-168.6c-51.7,11.5-1132.3,319.9-3820.2,1092c-523,149.4-588.2,180.1-657.1,316.1c-84.3,162.9-124.5-1.9,775.9,3140c459.8,1607.4,846.8,2942.7,862.1,2971.4c36.4,69,124.5,153.3,191.6,183.9C5165,3395.8,5207.2,3386.2,7293.5,2786.6z"/>
      <path stroke="#fff" d="M5126.7,2817.2c-105.4-136-183.9-220.3-205-220.3c-72.8,0-51.7-36.4,34.5-63.2c101.5-28.7,141.8-23,90,13.4c-30.7,23-30.7,28.7,3.8,86.2c30.7,53.6,42.1,59.4,93.9,47.9c101.5-21.1,124.5-42.1,124.5-113c0-46-9.6-67.1-28.7-67.1c-63.2,0-23-38.3,70.9-67.1c128.3-38.3,172.4-38.3,122.6,0c-30.6,23-40.2,65.1-53.6,252.9c-23,298.9-32.6,350.6-59.4,350.6C5306.8,3037.5,5218.7,2937.9,5126.7,2817.2z M5249.3,2807.6c0-78.5-5.7-95.8-32.6-95.8c-80.5,1.9-88.1,30.7-34.5,113c28.7,42.1,55.5,78.5,59.4,78.5C5245.5,2903.4,5249.3,2861.3,5249.3,2807.6z"/>
      <path stroke="#fff" d="M4956.2,2196.5c-72.8-38.3-143.7-86.2-159-107.3c-65.1-88.1,3.8-212.7,109.2-197.3c44.1,7.7,55.6,1.9,46-17.3c-5.7-15.3-9.6-32.6-9.6-36.4c0-5.7-26.8-21.1-61.3-34.5l-61.3-26.8l103.5-30.7c134.1-40.2,141.8-38.3,107.3,11.5c-17.2,23-30.7,63.2-30.7,90c0,42.2,3.8,44.1,34.5,17.2c51.7-46,99.6-55.6,143.7-30.6c95.8,49.8,93.9,130.3-9.6,302.7c-42.1,74.7-80.5,132.2-80.5,132.2C5086.5,2267.4,5027.1,2234.8,4956.2,2196.5z"/>
      <path stroke="#fff" d="M6816.5,958.9c-118.8-107.3-335.3-231.8-618.8-354.4c-580.5-252.9-733.8-341-896.6-515.4c-132.2-139.9-191.6-281.6-201.2-471.3c-5.8-124.5,0-174.3,34.5-264.4c63.2-168.6,178.2-296.9,335.3-377.4c122.6-63.2,141.8-67.1,314.2-67.1c160.9,0,197.3,5.7,289.3,51.7c57.5,28.7,107.3,49.8,109.2,46c9.6-9.6-55.6-210.7-92-281.6c-107.3-212.7-377.4-377.4-676.3-415.7l-111.1-13.4l724.2-208.8c400.4-115,743.3-212.7,764.4-218.4c23-5.7,5.7,15.3-38.3,47.9c-191.6,143.7-331.4,356.3-373.6,576.7c-21.1,103.5-19.2,137.9,9.6,258.6c47.9,197.3,55.6,206.9,101.5,116.9c57.5-109.2,187.7-228,320-289.3c97.7-44.1,139.8-53.6,277.8-51.7c210.7,0,356.3,61.3,498.1,210.7c149.4,157.1,180.1,243.3,182,496.2c0,189.7-5.7,224.2-57.5,344.8c-30.6,72.8-180.1,318-333.4,546c-279.7,415.7-398.5,636.1-446.4,816.1l-24.9,99.6L6816.5,958.9z"/>
      <path stroke="#fff" d="M7891.3-2744.4c11.5-21.1,21.1-63.2,21.1-92c0-49.8-1.9-49.8-34.5-21.1c-51.7,47.9-149.4,42.1-183.9-9.6c-46-65.1-38.3-105.4,49.8-252.9c44.1-74.7,80.5-137.9,82.4-139.8c1.9-1.9,67.1,28.7,145.6,70.9c92,47.9,153.3,93.9,166.7,124.5c44.1,93.9-42.1,199.3-141.8,174.3c-44.1-11.5-46-9.6-26.8,24.9c11.5,23,44.1,51.7,72.8,67.1l51.7,26.8l-82.4,23c-46,11.5-95.8,26.8-113,32.6C7874-2706.1,7874-2709.9,7891.3-2744.4z"/>
      <path stroke="#fff" d="M7471.7-3411.1c0-7.7,13.4-23,28.7-34.5c21.1-15.3,34.5-95.8,53.6-308.4c15.3-187.8,30.7-287.4,44.1-287.4c13.4,0,101.6,101.5,197.3,226.1c118.8,149.4,187.8,224.2,212.7,224.2c63.2,0,42.1,30.6-36.4,53.6c-103.4,32.6-128.3,30.7-97.7-5.8c24.9-30.6,11.5-90-28.8-124.5c-19.2-15.3-46-15.3-103.5,0c-74.7,19.2-78.5,24.9-78.5,95.8c0,55.6,7.7,76.6,28.7,76.6c67.1,0,21.1,36.4-82.4,65.1C7485.1-3395.8,7471.7-3393.9,7471.7-3411.1z M7793.6-3733c3.8-5.7-17.2-42.1-46-80.4l-55.6-70.9l-11.5,55.5c-26.8,118.8-23,128.4,44.1,114.9C7757.2-3719.6,7787.8-3729.1,7793.6-3733z"/>
      <path stroke="#fff" d="M3525.1,2625.6c-88.1-153.3-155.2-249.1-187.7-266.3c-44.1-23-46-26.8-11.5-36.4c34.5-11.5,132.2-19.2,168.6-15.3c11.5,1.9,1.9,13.4-17.2,28.7c-32.6,23-32.6,32.6-9.6,88.1c24.9,59.4,28.7,61.3,109.2,51.7c46-3.8,88.1-11.5,92-15.3c3.8-3.8,11.5-40.2,19.2-78.6c11.5-59.4,7.7-72.8-17.2-72.8c-17.2,0-30.7-7.7-30.7-17.2c0-15.3,132.2-40.2,214.6-40.2c34.5,0,34.5,1.9-1.9,53.6c-21.1,28.7-59.4,159-90,306.5c-34.5,162.8-61.3,252.9-76.6,252.9C3672.6,2865.1,3599.8,2757.8,3525.1,2625.6z M3640.1,2650.5c0-24.9,5.7-63.2,11.5-86.2c9.6-34.5,3.8-44.1-26.8-44.1c-92,0-103.5,17.2-57.5,97.7C3613.2,2702.3,3640.1,2713.8,3640.1,2650.5z"/>
      <path stroke="#fff" d="M2134.2,2390c-13.4-7.7-59.4-128.4-103.5-268.2c-47.9-151.4-97.7-272.1-120.7-293.1c-40.2-36.4-38.3-36.4,59.4-36.4c105.4,0,118.8,9.6,69,47.9c-23,15.3-28.7,38.3-19.2,80.5c13.4,57.5,61.3,82.4,157.1,82.4c38.3,0,101.5-137.9,70.9-147.5c-13.4-5.7-24.9-17.2-24.9-26.8c0-19.2,111.1-19.2,201.2,0l55.6,11.5l-47.9,30.7c-30.7,21.1-84.3,114.9-159,283.5c-61.3,137.9-113,251-114.9,251C2157.2,2405.3,2145.7,2397.6,2134.2,2390z M2141.9,2162c9.6-30.6,24.9-69,32.6-86.2c11.5-28.7,1.9-34.5-57.5-34.5c-59.4,0-69,5.7-57.5,34.5c5.7,17.3,17.2,55.6,23,86.2c5.7,28.7,17.2,51.7,24.9,51.7C2117,2213.7,2132.3,2190.7,2141.9,2162z"/>
      <path stroke="#fff" d="M3348.8,2033.6c-23-11.5-55.6-44.1-70.9-72.8c-26.8-46-26.8-57.5,1.9-116.9c17.2-36.4,70.9-111.1,118.8-164.8c47.9-55.6,88.1-109.2,88.1-120.7c0-11.5,19.2-3.8,44.1,17.2c23,23,88.1,67.1,143.7,101.5c93.9,57.5,157.1,136,157.1,197.3c0,15.3-17.2,49.8-40.2,78.5c-47.9,61.3-151.3,69-205,15.3c-34.5-34.5-36.4-34.5-65.1,15.3C3486.8,2043.2,3412.1,2064.3,3348.8,2033.6z"/>
      <path stroke="#fff" d="M2097.8,1571.9c-26.8-24.9-47.9-67.1-47.9-92c0-30.7-17.2-53.6-47.9-67.1c-105.4-47.9-97.7-189.7,15.3-252.9c47.9-26.8,57.5-24.9,109.2,3.8c55.6,32.6,57.5,32.6,57.5-7.7c0-23-19.2-61.3-42.1-86.2c-46-49.8-40.2-51.7,105.4-32.6l88.1,13.4l-46,36.4c-26.8,21.1-47.9,53.6-47.9,72.8c0,32.6,7.7,34.5,49.8,19.2c95.8-36.4,199.2,28.7,199.2,126.4c0,55.6-70.9,141.8-116.9,141.8c-23,0-36.4,13.4-36.4,38.3c0,55.6-84.3,134.1-143.7,134.1C2166.8,1619.8,2122.7,1598.8,2097.8,1571.9z"/>
      <path stroke="#fff" d="M684,1568.1c-5.8-9.6-19.2-136-32.6-281.6c-21.1-208.8-32.6-274-59.4-300.8c-49.8-49.8-23-55.6,88.1-21.1c74.7,23,86.2,32.6,51.7,38.3c-38.3,5.8-44.1,15.3-38.3,86.2c5.7,74.7,9.6,80.5,80.5,97.7c67.1,15.3,80.5,11.5,111.1-26.8c24.9-30.7,32.6-61.3,24.9-92c-9.6-38.3-5.7-44.1,21.1-34.5c17.2,5.8,69,21.1,114.9,32.6c90,23,107.3,46,47.9,61.3c-21.1,3.8-111.1,109.2-201.2,231.8C737.6,1568.1,703.1,1602.6,684,1568.1z M804.6,1257.7c0-11.5-11.5-21.1-26.8-21.1c-15.3,0-40.2-5.7-57.5-11.5c-24.9-9.6-30.7,1.9-30.7,55.6c0,122.6,19.2,137.9,69,63.2C783.6,1307.5,804.6,1267.3,804.6,1257.7z"/>
      <path stroke="#fff" d="M875.5,713.6c-17.3-55.6-47.9-132.2-67.1-170.5l-36.4-70.9l99.6-69c55.6-38.3,116.9-86.2,134.1-105.4c46-51.7,59.4-47.9,74.7,19.2c5.8,32.6,32.6,103.4,59.4,160.9c26.8,55.6,47.9,107.3,47.9,113c0,5.8-32.6,30.7-70.9,55.6c-40.2,23-103.5,70.9-141.8,105.4l-69,61.3L875.5,713.6z"/>
		</g>
	</g>
</svg>
