<svg xmlns="http://www.w3.org/2000/svg" viewBox="0 0 1000 1000" xml:space="preserve"><g stroke="#fff"><path d="M503.29 86.95c-11.11 4.02-20.88 11.3-27.01 20.12-4.6 6.32-21.65 64.37-89.66 301.55-80.08 278.94-84.3 294.08-83.34 305.96 1.15 19.35 11.3 34.67 27.97 42.91 4.79 2.3 62.84 19.73 128.94 38.7 65.9 18.78 119.74 34.49 119.55 34.68-.19.38-71.46-9.39-158.44-21.65-173.76-24.33-169.36-23.37-180.47-38.51-4.21-5.94-5.94-10.92-6.71-18.2-.77-10.15 79.7-592.18 83.91-607.5 2.68-9 11.88-19.54 21.27-24.52 9.96-4.98 19.16-4.6 66.1 2.11 22.03 3.26 41 5.36 42.34 4.79 1.34-.38 2.49-3.07 2.49-5.56 0-5.94 3.07-5.17-50.77-12.84-25.67-3.64-45.02-5.36-49.81-4.6-18.39 2.87-36.21 16.48-41.96 32.19-4.79 12.64-87.74 607.7-86.4 618.62 2.68 18.77 20.5 38.7 38.89 43.49 4.02.96 49.24 7.66 100.58 14.75 51.54 7.28 92.92 13.41 91.96 13.6-3.06.96-194.26 13.99-205.57 13.99-18.97 0-35.83-11.88-40.04-28.16-.96-4.02-9.77-119.74-19.35-257.29-9.58-137.56-18.97-272.62-20.88-300.21-4.02-55.94-3.45-62.65 5.75-74.14 10.92-13.03 16.67-14.75 62.84-17.82 22.8-1.34 43.3-3.06 45.41-3.45 5.17-1.15 6.9-5.36 4.02-9.39-2.11-3.07-5.56-3.07-44.45-.19-23.18 1.53-44.64 3.45-47.9 4.02-8.62 1.92-16.48 6.13-24.52 13.98-9.96 9.2-14.94 19.73-16.09 32.57-.38 5.94 6.9 122.42 16.48 258.83 27.4 388.14 24.52 353.28 29.31 363.43 7.47 15.71 22.99 27.78 39.27 30.27 4.02.77 51.15-1.92 104.79-5.75 53.64-3.83 99.24-6.71 101.35-6.32 6.9.96-207.48 61.11-217.64 60.92-16.48 0-30.46-10.35-36.59-27.21-1.53-4.6-39.66-136.41-84.49-293.12-54.03-189.48-81.43-287.76-81.43-293.7 0-10.73 5.17-21.27 14.18-29.31 7.28-6.32 16.67-9.77 65.9-23.56 30.65-8.62 36.02-11.88 30.08-17.82-1.72-1.53-4.02-2.49-5.36-2.11-1.34.38-20.88 6.13-43.49 12.45-22.61 6.51-44.83 13.99-49.43 16.48-15.71 9.2-27.01 32.19-24.52 49.81.58 4.6 18.78 69.74 40.23 144.84 21.65 75.1 58.62 204.61 82.57 287.95 23.76 83.15 44.64 154.61 46.36 158.63 6.9 15.9 29.31 30.08 47.51 30.08 4.41 0 66.86-17.05 147.13-40.04l139.28-40.04 82 11.3c80.66 10.92 82.38 11.3 124.72 23.57 48.85 14.37 58.43 15.33 73.95 8.04 11.69-5.36 24.14-18.58 28.35-30.08 5.75-15.52 166.1-578.39 167.25-586.82 2.49-18.2-11.49-43.49-28.54-51.73-13.22-6.13-433.74-125.68-442.17-125.68-4.59.2-11.68 1.35-15.7 2.69zm226.06 68.39c110.54 31.61 206.52 59.2 213.81 61.31 21.27 6.32 33.72 20.88 33.91 39.85 0 12.84-165.53 589.31-171.66 597.35-9.2 12.07-25.48 19.35-37.74 16.86-5.17-1.15-113.23-31.99-382.02-109.2-52.3-14.94-58.82-18.01-65.71-31.61-8.43-16.29-12.45.19 77.59-314 45.98-160.74 84.68-294.27 86.21-297.14 3.64-6.9 12.45-15.33 19.16-18.39 13.6-5.95 17.82-4.99 226.45 54.97z" stroke-width=".1"/><path d="M512.67 152.28c-10.54 13.6-18.39 22.03-20.5 22.03-7.28 0-5.17 3.64 3.45 6.32 10.15 2.87 14.18 2.3 9-1.34-3.07-2.3-3.07-2.87.38-8.62 3.07-5.36 4.21-5.94 9.39-4.79 10.15 2.11 12.45 4.21 12.45 11.3 0 4.6-.96 6.71-2.87 6.71-6.32 0-2.3 3.83 7.09 6.71 12.83 3.83 17.24 3.83 12.26 0-3.06-2.3-4.02-6.51-5.36-25.29-2.3-29.89-3.26-35.06-5.94-35.06-1.34 0-10.15 9.96-19.35 22.03zm12.26.96c0 7.85-.57 9.58-3.26 9.58-8.05-.19-8.81-3.07-3.45-11.3 2.87-4.21 5.55-7.85 5.94-7.85.39-.01.77 4.2.77 9.57zM495.62 214.35c-7.28 3.83-14.37 8.62-15.9 10.73-6.51 8.81.38 21.27 10.92 19.73 4.41-.77 5.56-.19 4.6 1.73-.57 1.53-.96 3.26-.96 3.64 0 .57-2.68 2.11-6.13 3.45l-6.13 2.68 10.35 3.07c13.41 4.02 14.18 3.83 10.73-1.15-1.72-2.3-3.07-6.32-3.07-9 0-4.22.38-4.41 3.45-1.72 5.17 4.6 9.96 5.56 14.37 3.06 9.58-4.98 9.39-13.03-.96-30.27-4.21-7.47-8.05-13.22-8.05-13.22-.19.18-6.13 3.44-13.22 7.27zM681.65 338.11c-11.88 10.73-33.53 23.18-61.88 35.44-58.05 25.29-73.38 34.1-89.66 51.54-13.22 13.99-19.16 28.16-20.12 47.13-.58 12.45 0 17.43 3.45 26.44 6.32 16.86 17.82 29.69 33.53 37.74 12.26 6.32 14.18 6.71 31.42 6.71 16.09 0 19.73-.57 28.93-5.17 5.75-2.87 10.73-4.98 10.92-4.6.96.96-5.56 21.07-9.2 28.16-10.73 21.27-37.74 37.74-67.63 41.57l-11.11 1.34 72.42 20.88c40.04 11.5 74.33 21.27 76.44 21.84 2.3.57.57-1.53-3.83-4.79-19.16-14.37-33.14-35.63-37.36-57.67-2.11-10.35-1.92-13.79.96-25.86 4.79-19.73 5.56-20.69 10.15-11.69 5.75 10.92 18.77 22.8 32 28.93 9.77 4.41 13.98 5.36 27.78 5.17 21.07 0 35.63-6.13 49.81-21.07 14.94-15.71 18.01-24.33 18.2-49.62 0-18.97-.57-22.42-5.75-34.48-3.06-7.28-18.01-31.8-33.34-54.6-27.97-41.57-39.85-63.61-44.64-81.61l-2.49-9.96-9 8.23zM789.13 708.44c1.15 2.11 2.11 6.32 2.11 9.2 0 4.98-.19 4.98-3.45 2.11-5.17-4.79-14.94-4.21-18.39.96-4.6 6.51-3.83 10.54 4.98 25.29 4.41 7.47 8.05 13.79 8.24 13.98.19.19 6.71-2.87 14.56-7.09 9.2-4.79 15.33-9.39 16.67-12.45 4.41-9.39-4.21-19.93-14.18-17.43-4.41 1.15-4.6.96-2.68-2.49 1.15-2.3 4.41-5.17 7.28-6.71l5.17-2.68-8.24-2.3c-4.6-1.15-9.58-2.68-11.3-3.26-2.5-.96-2.5-.58-.77 2.87zM747.17 775.11c0 .77 1.34 2.3 2.87 3.45 2.11 1.53 3.45 9.58 5.36 30.84 1.53 18.78 3.07 28.74 4.41 28.74 1.34 0 10.16-10.15 19.73-22.61 11.88-14.94 18.78-22.42 21.27-22.42 6.32 0 4.21-3.06-3.64-5.36-10.34-3.26-12.83-3.07-9.77.58 2.49 3.06 1.15 9-2.88 12.45-1.92 1.53-4.6 1.53-10.35 0-7.47-1.92-7.85-2.49-7.85-9.58 0-5.56.77-7.66 2.87-7.66 6.71 0 2.11-3.64-8.24-6.51-12.44-3.45-13.78-3.64-13.78-1.92zm32.19 32.19c.38.57-1.72 4.21-4.6 8.04l-5.56 7.09-1.15-5.55c-2.68-11.88-2.3-12.84 4.41-11.49 3.26.57 6.32 1.52 6.9 1.91zM352.51 171.44c-8.81 15.33-15.52 24.91-18.77 26.63-4.41 2.3-4.6 2.68-1.15 3.64 3.45 1.15 13.22 1.92 16.86 1.53 1.15-.19.19-1.34-1.72-2.87-3.26-2.3-3.26-3.26-.96-8.81 2.49-5.94 2.87-6.13 10.92-5.17 4.6.38 8.81 1.15 9.2 1.53.38.38 1.15 4.02 1.92 7.86 1.15 5.94.77 7.28-1.72 7.28-1.72 0-3.07.77-3.07 1.72 0 1.53 13.22 4.02 21.46 4.02 3.45 0 3.45-.19-.19-5.36-2.11-2.87-5.94-15.9-9-30.65-3.45-16.28-6.13-25.29-7.66-25.29-1.37-.01-8.65 10.72-16.12 23.94zm11.5-2.49c0 2.49.57 6.32 1.15 8.62.96 3.45.38 4.41-2.68 4.41-9.2 0-10.35-1.72-5.75-9.77 4.59-8.44 7.28-9.59 7.28-3.26zM213.42 195c-1.34.77-5.94 12.84-10.35 26.82-4.79 15.14-9.77 27.21-12.07 29.31-4.02 3.64-3.83 3.64 5.94 3.64 10.54 0 11.88-.96 6.9-4.79-2.3-1.53-2.87-3.83-1.92-8.05 1.34-5.75 6.13-8.24 15.71-8.24 3.83 0 10.15 13.79 7.09 14.75-1.34.57-2.49 1.72-2.49 2.68 0 1.92 11.11 1.92 20.12 0l5.56-1.15-4.79-3.07c-3.07-2.11-8.43-11.49-15.9-28.35-6.13-13.79-11.3-25.1-11.49-25.1-.01.02-1.16.79-2.31 1.55zm.77 22.8c.96 3.06 2.49 6.9 3.26 8.62 1.15 2.87.19 3.45-5.75 3.45s-6.9-.57-5.75-3.45c.57-1.73 1.72-5.56 2.3-8.62.57-2.87 1.72-5.17 2.49-5.17.96 0 2.49 2.3 3.45 5.17zM334.88 230.64c-2.3 1.15-5.56 4.41-7.09 7.28-2.68 4.6-2.68 5.75.19 11.69 1.72 3.64 7.09 11.11 11.88 16.48 4.79 5.56 8.81 10.92 8.81 12.07 0 1.15 1.92.38 4.41-1.72 2.3-2.3 8.81-6.71 14.37-10.15 9.39-5.75 15.71-13.6 15.71-19.73 0-1.53-1.72-4.98-4.02-7.85-4.79-6.13-15.13-6.9-20.5-1.53-3.45 3.45-3.64 3.45-6.51-1.53-3.45-5.97-10.92-8.08-17.25-5.01zM209.78 276.81c-2.68 2.49-4.79 6.71-4.79 9.2 0 3.07-1.72 5.36-4.79 6.71-10.54 4.79-9.77 18.97 1.53 25.29 4.79 2.68 5.75 2.49 10.92-.38 5.56-3.26 5.75-3.26 5.75.77 0 2.3-1.92 6.13-4.21 8.62-4.6 4.98-4.02 5.17 10.54 3.26l8.81-1.34-4.6-3.64c-2.68-2.11-4.79-5.36-4.79-7.28 0-3.26.77-3.45 4.98-1.92 9.58 3.64 19.92-2.87 19.92-12.64 0-5.56-7.09-14.18-11.69-14.18-2.3 0-3.64-1.34-3.64-3.83 0-5.56-8.43-13.41-14.37-13.41-2.67-.02-7.08 2.08-9.57 4.77zM68.4 277.19c-.58.96-1.92 13.6-3.26 28.16-2.11 20.88-3.26 27.4-5.94 30.08-4.98 4.98-2.3 5.56 8.81 2.11 7.47-2.3 8.62-3.26 5.17-3.83-3.83-.58-4.41-1.53-3.83-8.62.57-7.47.96-8.05 8.05-9.77 6.71-1.53 8.05-1.15 11.11 2.68 2.49 3.07 3.26 6.13 2.49 9.2-.96 3.83-.57 4.41 2.11 3.45 1.72-.58 6.9-2.11 11.49-3.26 9-2.3 10.73-4.6 4.79-6.13-2.11-.38-11.11-10.92-20.12-23.18-15.51-20.89-18.96-24.34-20.87-20.89zm12.06 31.04c0 1.15-1.15 2.11-2.68 2.11-1.53 0-4.02.57-5.75 1.15-2.49.96-3.07-.19-3.07-5.56 0-12.26 1.92-13.79 6.9-6.32 2.5 3.64 4.6 7.66 4.6 8.62zM87.55 362.64c-1.73 5.56-4.79 13.22-6.71 17.05l-3.64 7.09 9.96 6.9c5.56 3.83 11.69 8.62 13.41 10.54 4.6 5.17 5.94 4.79 7.47-1.92.58-3.26 3.26-10.34 5.94-16.09 2.68-5.56 4.79-10.73 4.79-11.3 0-.58-3.26-3.07-7.09-5.56-4.02-2.3-10.35-7.09-14.18-10.54l-6.9-6.13-3.05 9.96z" stroke-width=".1"/></g></svg>