<?xml version="1.0" standalone="no"?>
<!DOCTYPE svg PUBLIC "-//W3C//DTD SVG 20010904//EN"
 "http://www.w3.org/TR/2001/REC-SVG-20010904/DTD/svg10.dtd">
<svg version="1.0" xmlns="http://www.w3.org/2000/svg"
 width="24.000000pt" height="24.000000pt" viewBox="0 0 24.000000 24.000000"
 preserveAspectRatio="xMidYMid meet">

<g transform="translate(0.000000,24.000000) scale(0.100000,-0.100000)"
fill="#fff" stroke="none">
<path d="M12 228 c-16 -16 -16 -200 0 -216 19 -19 202 -16 218 3 7 9 9 19 5
23 -4 4 -10 1 -12 -5 -3 -9 -34 -13 -104 -13 l-99 0 0 100 0 100 100 0 100 0
0 -70 c0 -40 4 -70 10 -70 14 0 13 133 -2 148 -16 16 -200 16 -216 0z"/>
<path d="M140 190 c0 -5 5 -10 12 -10 6 0 3 -9 -7 -20 -10 -11 -15 -23 -12
-27 4 -3 16 2 27 12 11 10 20 13 20 7 0 -7 5 -12 10 -12 6 0 10 14 10 30 0 27
-3 30 -30 30 -16 0 -30 -4 -30 -10z"/>
<path d="M77 93 c-11 -11 -17 -13 -17 -5 0 7 -5 12 -11 12 -6 0 -9 -12 -7 -27
2 -22 9 -29 31 -31 15 -2 27 1 27 7 0 6 -5 11 -12 11 -6 0 -4 7 5 18 30 33 15
46 -16 15z"/>
</g>
</svg>
