<svg width="22" height="22" fill="none" xmlns="http://www.w3.org/2000/svg"><path d="M1.065 9.429h19.87c.283 0 .554.165.753.46.2.295.312.695.312 1.111 0 .417-.112.817-.312 1.111-.2.295-.47.46-.752.46H1.065c-.283 0-.554-.165-.753-.46-.2-.294-.312-.694-.312-1.11 0-.417.112-.817.312-1.112.2-.295.47-.46.753-.46ZM1.065 18.857h19.87c.283 0 .554.166.753.46.2.295.312.695.312 1.112 0 .416-.112.816-.312 1.11-.2.295-.47.461-.752.461H1.065c-.283 0-.554-.166-.753-.46-.2-.295-.312-.695-.312-1.111 0-.417.112-.817.312-1.112.2-.294.47-.46.753-.46ZM1.065 0h19.87c.283 0 .554.166.753.46.2.295.312.695.312 1.111 0 .417-.112.817-.312 1.112-.2.294-.47.46-.752.46H1.065c-.283 0-.554-.166-.753-.46C.112 2.388 0 1.988 0 1.57 0 1.155.112.755.312.461.512.165.782 0 1.065 0Z" fill="#fff"/></svg>