<?xml version="1.0" standalone="no"?>
<!DOCTYPE svg PUBLIC "-//W3C//DTD SVG 20010904//EN"
 "http://www.w3.org/TR/2001/REC-SVG-20010904/DTD/svg10.dtd">
<svg version="1.0" xmlns="http://www.w3.org/2000/svg"
 width="64.000000pt" height="64.000000pt" viewBox="0 0 64.000000 64.000000"
 preserveAspectRatio="xMidYMid meet">

<g transform="translate(0.000000,64.000000) scale(0.100000,-0.100000)"
fill="#fff" stroke="none">
<path d="M36 619 c-25 -20 -26 -24 -26 -130 0 -96 2 -111 20 -129 11 -11 27
-20 35 -20 8 0 15 -9 15 -21 0 -27 18 -59 32 -59 7 0 27 14 45 32 l33 32 0
-86 c0 -77 3 -90 23 -114 21 -25 31 -28 108 -32 l84 -4 48 -46 c39 -39 50 -45
65 -36 10 6 18 26 20 47 2 27 9 38 25 43 12 3 32 16 45 27 21 19 22 29 22 147
0 123 -1 127 -26 151 -23 21 -36 24 -125 27 l-99 4 0 73 c0 68 -2 75 -26 94
-24 19 -40 21 -159 21 -119 0 -135 -2 -159 -21z m295 -19 c16 -9 19 -22 19
-79 l0 -68 -56 -6 c-59 -6 -89 -25 -100 -61 -7 -23 -63 -86 -76 -86 -4 0 -8
16 -8 35 0 30 -3 35 -23 35 -13 0 -28 5 -35 12 -16 16 -16 200 0 216 15 15
251 17 279 2z m247 -196 c21 -14 22 -23 22 -134 0 -111 -1 -120 -22 -134 -12
-9 -33 -16 -45 -16 -21 0 -23 -5 -23 -47 l0 -47 -47 46 -48 46 -83 4 c-109 4
-112 8 -112 148 0 107 7 131 40 143 8 3 78 6 155 6 112 1 145 -2 163 -15z"/>
<path d="M300 270 c0 -15 5 -20 18 -18 9 2 17 10 17 18 0 8 -8 16 -17 18 -13
2 -18 -3 -18 -18z"/>
<path d="M395 280 c-8 -14 3 -30 21 -30 8 0 14 9 14 20 0 21 -24 28 -35 10z"/>
<path d="M485 280 c-4 -7 -3 -16 3 -22 14 -14 45 -2 40 15 -6 16 -34 21 -43 7z"/>
</g>
</svg>
