<?xml version="1.0" standalone="no"?>
<!DOCTYPE svg PUBLIC "-//W3C//DTD SVG 20010904//EN"
 "http://www.w3.org/TR/2001/REC-SVG-20010904/DTD/svg10.dtd">
<svg version="1.0" xmlns="http://www.w3.org/2000/svg"
 width="24.000000pt" height="24.000000pt" viewBox="0 0 24.000000 24.000000"
 preserveAspectRatio="xMidYMid meet">

<g transform="translate(0.000000,24.000000) scale(0.100000,-0.100000)"
fill="#fff" stroke="none">
<path d="M12 228 c-16 -16 -16 -200 0 -216 19 -19 202 -16 218 3 7 9 9 19 5
23 -4 4 -10 1 -12 -5 -3 -9 -34 -13 -104 -13 l-99 0 0 100 0 100 100 0 100 0
0 -70 c0 -40 4 -70 10 -70 14 0 13 133 -2 148 -16 16 -200 16 -216 0z"/>
<path d="M164 179 c-17 -19 -19 -19 -25 -2 -6 13 -8 9 -8 -14 -1 -31 1 -33 32
-33 23 0 28 3 17 10 -12 8 -12 11 3 28 9 10 17 22 17 25 0 13 -17 7 -36 -14z"/>
<path d="M55 110 c-3 -5 2 -10 11 -10 15 0 15 -3 -4 -23 -29 -31 -16 -44 15
-15 21 20 23 20 23 3 0 -15 3 -16 12 -7 9 9 9 18 0 37 -12 25 -45 34 -57 15z"/>
</g>
</svg>
