<?xml version="1.0" standalone="no"?>
<!DOCTYPE svg PUBLIC "-//W3C//DTD SVG 20010904//EN"
 "http://www.w3.org/TR/2001/REC-SVG-20010904/DTD/svg10.dtd">
<svg version="1.0" xmlns="http://www.w3.org/2000/svg"
 width="512.000000pt" height="512.000000pt" viewBox="0 0 512.000000 512.000000"
 preserveAspectRatio="xMidYMid meet">

<g transform="translate(0.000000,512.000000) scale(0.100000,-0.100000)"
fill="#fff" stroke="none">
<path d="M102 5099 c-78 -39 -118 -133 -92 -215 10 -31 127 -154 603 -631
l592 -593 -50 0 c-192 0 -319 -72 -388 -218 l-32 -67 -3 -778 c-2 -500 1 -798
8 -834 28 -152 141 -264 295 -292 36 -7 221 -11 487 -11 l428 0 898 -719 c571
-456 913 -723 937 -731 79 -26 176 15 215 90 19 37 20 58 20 385 0 190 3 345
8 345 4 0 185 -178 402 -396 403 -404 437 -433 509 -434 83 0 167 74 178 158
12 91 155 -58 -2421 2521 -1677 1678 -2413 2409 -2441 2422 -53 25 -100 24
-153 -2z m1600 -1936 l128 -128 0 -602 0 -603 -365 0 -365 0 0 730 0 730 237
0 238 0 127 -127z m1230 -1230 l728 -728 0 -317 c0 -175 -3 -318 -6 -318 -4 0
-334 262 -735 583 l-729 582 0 463 c0 254 3 462 7 462 5 0 335 -327 735 -727z"/>
<path d="M3765 5101 c-50 -24 -1512 -1196 -1539 -1233 -29 -40 -33 -133 -8
-178 42 -75 120 -112 207 -96 28 6 173 116 629 482 327 261 596 474 600 474 3
0 6 -514 6 -1142 0 -1068 1 -1145 18 -1177 61 -122 225 -134 309 -24 l28 36 3
1369 c2 1358 2 1369 -18 1408 -42 83 -153 121 -235 81z"/>
</g>
</svg>
