<?xml version="1.0" standalone="no"?>
<!DOCTYPE svg PUBLIC "-//W3C//DTD SVG 20010904//EN"
 "http://www.w3.org/TR/2001/REC-SVG-20010904/DTD/svg10.dtd">
<svg version="1.0" xmlns="http://www.w3.org/2000/svg"
 width="64.000000pt" height="64.000000pt" viewBox="0 0 64.000000 64.000000"
 preserveAspectRatio="xMidYMid meet">

<g transform="translate(0.000000,64.000000) scale(0.100000,-0.100000)"
fill="#fff" stroke="none">
<path d="M92 466 c-119 -121 -119 -121 -5 -237 47 -49 95 -92 106 -95 27 -8
47 19 47 64 l0 34 88 -4 c102 -5 165 -32 242 -104 61 -57 74 -57 65 -1 -18
109 -108 234 -209 290 -45 25 -69 33 -158 52 -24 4 -28 10 -28 38 0 36 -15 57
-40 57 -9 0 -58 -42 -108 -94z m173 -38 c131 -17 274 -126 309 -236 7 -22 6
-22 -35 7 -79 58 -240 89 -313 61 -22 -8 -26 -16 -26 -52 l0 -42 -75 74 c-42
41 -78 86 -82 98 -5 20 8 38 73 103 l79 80 5 -43 5 -43 60 -7z"/>
</g>
</svg>
