<svg width="30" height="30" fill="none" xmlns="http://www.w3.org/2000/svg"><path fill-rule="evenodd" clip-rule="evenodd" d="M3.673 15c0 2.578.866 5.078 2.454 7.081a10.989 10.989 0 0 0 6.27 3.927 10.82 10.82 0 0 0 7.295-.977 11.155 11.155 0 0 0 5.067-5.445l3.407 1.412a14.882 14.882 0 0 1-6.725 7.329 14.43 14.43 0 0 1-9.746 1.357 14.651 14.651 0 0 1-8.401-5.222A15.197 15.197 0 0 1 0 15.001c0-3.13.96-6.183 2.744-8.73A14.723 14.723 0 0 1 9.95.804 14.409 14.409 0 0 1 18.93.637a14.692 14.692 0 0 1 7.396 5.199V1.25H30v10l-1.837 1.875h-8.571v-3.75h4.648a11.095 11.095 0 0 0-5.327-4.772 10.81 10.81 0 0 0-7.071-.474A11.011 11.011 0 0 0 5.95 8.15 11.403 11.403 0 0 0 3.673 15Z" fill="#fff"/></svg>