<svg width="22" height="22" fill="none" xmlns="http://www.w3.org/2000/svg"><path d="M11 11.38a5.082 5.082 0 0 1-2.957-.96 5.625 5.625 0 0 1-1.96-2.553A6.055 6.055 0 0 1 5.78 4.58a5.821 5.821 0 0 1 1.456-2.914A5.226 5.226 0 0 1 9.962.11a5.004 5.004 0 0 1 3.075.324 5.416 5.416 0 0 1 2.388 2.096c.585.935.898 2.035.898 3.16 0 1.51-.561 2.957-1.56 4.024-.998 1.067-2.351 1.666-3.763 1.666Zm0-9.104c-.632 0-1.25.2-1.774.575a3.375 3.375 0 0 0-1.177 1.532 3.633 3.633 0 0 0-.181 1.973c.123.662.427 1.27.874 1.748a3.136 3.136 0 0 0 1.635.934c.62.132 1.261.064 1.845-.194a3.25 3.25 0 0 0 1.433-1.258c.351-.561.539-1.221.539-1.896 0-.906-.337-1.774-.936-2.414-.599-.64-1.411-1-2.258-1ZM20.936 22a1.046 1.046 0 0 1-.75-.338 1.193 1.193 0 0 1-.315-.8c0-2.959-1.505-4.931-8.871-4.931-7.366 0-8.871 1.972-8.871 4.931 0 .302-.112.591-.312.805-.2.213-.47.333-.752.333a1.03 1.03 0 0 1-.753-.333A1.18 1.18 0 0 1 0 20.862c0-7.207 7.707-7.207 11-7.207s11 0 11 7.207c-.004.3-.117.588-.316.8a1.045 1.045 0 0 1-.748.338Z" fill="#fff"/></svg>