<?xml version="1.0" standalone="no"?>
<!DOCTYPE svg PUBLIC "-//W3C//DTD SVG 20010904//EN"
 "http://www.w3.org/TR/2001/REC-SVG-20010904/DTD/svg10.dtd">
<svg version="1.0" xmlns="http://www.w3.org/2000/svg"
 width="512.000000pt" height="512.000000pt" viewBox="0 0 512.000000 512.000000"
 preserveAspectRatio="xMidYMid meet">

<g transform="translate(0.000000,512.000000) scale(0.100000,-0.100000)"
fill="#fff" stroke="none">
<path d="M3965 5109 c-16 -5 -435 -333 -930 -729 l-900 -720 -425 0 c-234 0
-451 -4 -484 -10 -162 -26 -280 -146 -306 -310 -13 -82 -13 -1469 0 -1559 18
-128 109 -245 228 -293 56 -22 64 -23 522 -26 l464 -3 888 -711 c489 -391 905
-719 925 -729 21 -11 53 -19 73 -19 73 1 159 63 178 128 9 35 9 4829 0 4864
-26 89 -137 146 -233 117z m-127 -3545 l-3 -996 -727 582 -728 582 0 828 0
828 728 582 727 582 3 -996 c1 -548 1 -1444 0 -1992z m-1828 996 l0 -730 -365
0 -365 0 0 730 0 730 365 0 365 0 0 -730z"/>
</g>
</svg>
